<?xml version="1.0" standalone="no"?>
<!DOCTYPE svg PUBLIC "-//W3C//DTD SVG 20010904//EN"
 "http://www.w3.org/TR/2001/REC-SVG-20010904/DTD/svg10.dtd">
<svg version="1.0" xmlns="http://www.w3.org/2000/svg"
 width="1275.000000pt" height="656.000000pt" viewBox="0 0 1275.000000 656.000000"
 preserveAspectRatio="xMidYMid meet">

<g transform="translate(0.000000,656.000000) scale(0.100000,-0.100000)"
fill="#000000" stroke="none">
<path d="M1715 4903 c-91 -11 -168 -27 -235 -49 -387 -130 -668 -464 -745
-886 -13 -73 -15 -158 -13 -520 3 -428 3 -434 27 -491 67 -166 219 -282 397
-303 l54 -7 0 602 c0 659 2 691 59 816 79 172 243 309 409 344 75 16 208 14
276 -4 204 -53 383 -235 431 -436 12 -51 15 -144 15 -474 0 -445 4 -485 56
-587 36 -71 123 -159 193 -197 60 -32 156 -61 202 -61 l27 0 5 623 c5 688 3
672 72 812 77 158 221 278 382 320 74 19 212 19 288 0 109 -28 184 -72 270
-159 86 -86 132 -161 162 -262 16 -54 18 -148 23 -1114 l5 -1055 23 -58 c32
-80 106 -173 171 -217 59 -41 150 -76 222 -86 l47 -6 7 524 c4 287 5 849 3
1248 l-4 725 -26 95 c-38 139 -81 245 -137 335 -258 419 -726 615 -1182 495
-183 -48 -356 -147 -490 -281 l-77 -77 -73 75 c-172 173 -397 282 -644 312
-88 11 -139 12 -200 4z"/>
<path d="M6650 4904 c-14 -2 -58 -9 -99 -15 -206 -30 -423 -143 -580 -300
-225 -225 -343 -553 -311 -863 64 -628 627 -1062 1247 -961 112 18 263 71 355
124 l68 39 0 -139 0 -139 28 0 c43 0 137 27 194 56 117 59 220 196 248 329 8
37 10 194 8 507 l-4 453 -27 100 c-83 309 -292 565 -570 700 -174 84 -411 130
-557 109z m274 -512 c302 -109 469 -432 380 -734 -30 -98 -74 -170 -153 -249
-80 -81 -152 -124 -257 -155 -80 -24 -238 -24 -319 0 -265 80 -435 304 -435
576 0 273 176 502 440 575 81 22 266 15 344 -13z"/>
<path d="M9075 4899 c-91 -12 -228 -51 -311 -89 -261 -118 -487 -369 -579
-644 -59 -176 -58 -157 -62 -863 l-4 -653 38 0 c179 1 363 144 426 333 19 58
21 92 27 517 6 443 7 457 29 519 31 83 109 199 174 256 64 56 187 119 264 135
83 18 242 7 320 -20 170 -59 315 -211 376 -390 21 -64 22 -77 25 -709 l3 -644
58 6 c174 19 330 142 393 312 21 58 22 77 28 515 6 431 7 458 28 520 59 180
208 333 381 394 80 28 245 33 331 11 196 -51 361 -207 427 -405 17 -51 18
-120 23 -1030 l5 -975 40 3 c109 8 205 52 287 130 66 62 108 131 132 211 23
80 24 1536 1 1658 -69 362 -293 655 -619 809 -285 134 -612 132 -903 -6 -113
-53 -193 -110 -294 -207 l-85 -82 -38 44 c-81 98 -263 223 -400 276 -158 61
-369 89 -521 68z"/>
<path d="M4860 3639 c0 -609 1 -622 57 -733 33 -65 134 -166 201 -200 57 -29
151 -56 194 -56 l28 0 0 775 0 775 -240 0 -240 0 0 -561z"/>
<path d="M5340 1449 l0 -781 398 5 c416 5 446 8 585 56 178 62 337 195 415
348 65 125 85 213 85 368 1 159 -16 235 -79 362 -106 214 -314 363 -569 408
-68 12 -172 15 -461 15 l-374 0 0 -781z m763 536 c190 -40 321 -149 384 -321
34 -92 43 -257 19 -357 -45 -190 -179 -330 -367 -383 -38 -11 -122 -17 -276
-21 l-223 -6 0 552 0 551 198 0 c133 0 219 -5 265 -15z"/>
<path d="M7350 1450 l0 -780 150 0 150 0 0 780 0 780 -150 0 -150 0 0 -780z"/>
<path d="M8230 1450 l0 -780 510 0 510 0 0 115 0 115 -360 0 -360 0 0 225 0
225 340 0 340 0 0 115 0 115 -340 0 -340 0 0 210 0 210 355 0 355 0 0 115 0
115 -505 0 -505 0 0 -780z"/>
<path d="M9660 2115 l0 -115 275 0 275 0 0 -665 0 -665 150 0 150 0 0 665 0
665 275 0 275 0 0 115 0 115 -700 0 -700 0 0 -115z"/>
</g>
</svg>
